<svg xmlns="http://www.w3.org/2000/svg" width="22" height="12" viewBox="0 0 22 12">
  <defs>
    <style>
      .cls-1 {
        fill: #fff;
        fill-rule: evenodd;
      }
    </style>
  </defs>
  <path id="Forma_1" data-name="Forma 1" class="cls-1" d="M929.7,1545.18a0.94,0.94,0,0,0-1.363,0l-1.352,1.4V1539a0.984,0.984,0,0,0-.965-1h-9.439a1,1,0,0,0,0,2h8.475v6.58l-1.352-1.4a0.94,0.94,0,0,0-1.363,0,1.021,1.021,0,0,0,0,1.41l3,3.12a0.948,0.948,0,0,0,1.365,0l3-3.12A1.021,1.021,0,0,0,929.7,1545.18Zm-8.3,2.82h-8.475v-6.58l1.352,1.4a0.947,0.947,0,0,0,1.364,0,1.02,1.02,0,0,0,0-1.41l-3-3.12a0.948,0.948,0,0,0-1.365,0l-3,3.12a1.021,1.021,0,0,0,0,1.41,0.94,0.94,0,0,0,1.363,0l1.353-1.4V1549a0.984,0.984,0,0,0,.964,1H921.4A1,1,0,0,0,921.4,1548Z" transform="translate(-908 -1538)"/>
</svg>
