<svg xmlns="http://www.w3.org/2000/svg" width="22" height="21" viewBox="0 0 22 21">
  <defs>
    <style>
      .cls-1 {
        fill: #fff;
        stroke: #fff;
        stroke-linejoin: round;
        stroke-width: 1px;
        fill-rule: evenodd;
      }
    </style>
  </defs>
  <path id="Forma_1" data-name="Forma 1" class="cls-1" d="M971,1553a0.541,0.541,0,0,1-.4-0.17l-6.395-6.92s0,0,0-.01a4.894,4.894,0,0,1,0-6.43l0.1-.11a3.924,3.924,0,0,1,5.941,0L971,1540.2l0.758-.84a3.924,3.924,0,0,1,5.941,0l0.1,0.11a4.908,4.908,0,0,1,0,6.44h0l-6.394,6.92A0.541,0.541,0,0,1,971,1553Zm-6-7.83,6,6.49,6-6.49a3.8,3.8,0,0,0,0-4.97l-0.1-.11a2.849,2.849,0,0,0-4.335,0l-1.159,1.29a0.539,0.539,0,0,1-.8,0l-1.159-1.29a2.849,2.849,0,0,0-4.335,0l-0.1.11A3.8,3.8,0,0,0,965.005,1545.17Z" transform="translate(-960 -1535)"/>
</svg>
