<svg xmlns="http://www.w3.org/2000/svg"><defs><style>.cls-1{fill:#fff;fill-rule:evenodd}</style><style>.cls-1{fill:#222;fill-rule:evenodd}</style><style>.cls-1{fill:#fff;stroke:#fff;stroke-linejoin:round;stroke-width:1px;fill-rule:evenodd}</style><style>.cls-1{fill:rosy-pink;fill-rule:evenodd}</style><style>.cls-1{fill:#f16d7f;fill-rule:evenodd}</style><style>.cls-1{fill:#f16d7f;fill-rule:evenodd}</style><style>.cls-1{fill:#fff;stroke:#fff;stroke-linejoin:round;stroke-width:2px;fill-rule:evenodd}</style></defs><symbol id="12" viewBox="0 0 22 12"><path id="Forma_1" data-name="Forma 1" class="cls-1" d="M929.7 1545.18a.94.94 0 0 0-1.363 0l-1.352 1.4V1539a.984.984 0 0 0-.965-1h-9.439a1 1 0 0 0 0 2h8.475v6.58l-1.352-1.4a.94.94 0 0 0-1.363 0 1.021 1.021 0 0 0 0 1.41l3 3.12a.948.948 0 0 0 1.365 0l3-3.12a1.021 1.021 0 0 0-.006-1.41zm-8.3 2.82h-8.475v-6.58l1.352 1.4a.947.947 0 0 0 1.364 0 1.02 1.02 0 0 0 0-1.41l-3-3.12a.948.948 0 0 0-1.365 0l-3 3.12a1.021 1.021 0 0 0 0 1.41.94.94 0 0 0 1.363 0l1.353-1.4v7.58a.984.984 0 0 0 .964 1h9.444a1 1 0 0 0 0-2z" transform="translate(-908 -1538)"/></symbol><symbol id="card" viewBox="0 0 32 29"><path id="Forma_1" data-name="Forma 1" class="cls-1" d="M1182.18 42.364h3.4l4.83 17.455a1.183 1.183 0 0 0 1.14.867h14.86a1.175 1.175 0 0 0 1.08-.709l5.41-12.412a1.186 1.186 0 0 0-1.09-1.655h-16.41a1.182 1.182 0 0 0 0 2.364h14.6l-4.38 10.048h-13.18l-4.83-17.455a1.186 1.186 0 0 0-1.15-.867h-4.28a1.182 1.182 0 0 0 0 2.364zM1190.43 69a2.679 2.679 0 1 0-2.68-2.679 2.681 2.681 0 0 0 2.68 2.679zm16.77 0h.19a2.686 2.686 0 0 0-.37-5.359 2.683 2.683 0 0 0 .18 5.359z" transform="translate(-1181 -40)"/></symbol><symbol id="Forma 1" viewBox="0 0 22 21"><path id="Forma_1" data-name="Forma 1" class="cls-1" d="M971 1553a.541.541 0 0 1-.4-.17l-6.395-6.92v-.01a4.894 4.894 0 0 1 0-6.43l.1-.11a3.924 3.924 0 0 1 5.941 0l.754.84.758-.84a3.924 3.924 0 0 1 5.941 0l.1.11a4.908 4.908 0 0 1 0 6.44l-6.394 6.92a.541.541 0 0 1-.405.17zm-6-7.83l6 6.49 6-6.49a3.8 3.8 0 0 0 0-4.97l-.1-.11a2.849 2.849 0 0 0-4.335 0l-1.159 1.29a.539.539 0 0 1-.8 0l-1.159-1.29a2.849 2.849 0 0 0-4.335 0l-.1.11a3.8 3.8 0 0 0-.007 4.97z" transform="translate(-960 -1535)"/></symbol><symbol id="Forma_1" viewBox="0 0 47.06 35"><path id="Forma_1" data-name="Forma 1" class="cls-1" d="M1070.37 3246.55a4.6 4.6 0 0 0-4.64 4.54 4.438 4.438 0 0 0 1.56 3.37l-5.87 2.06-8.34-9.7a4.544 4.544 0 0 0 3.1-4.26 4.646 4.646 0 1 0-6.25 4.25l-8.35 9.71-5.86-2.06a4.472 4.472 0 0 0 1.56-3.37 4.652 4.652 0 1 0-5.75 4.4v12.32a1.027 1.027 0 0 0 .05.24 1.6 1.6 0 0 0-.05.39c0 4.42 17.93 4.55 19.97 4.55s19.97-.13 19.97-4.55a1.6 1.6 0 0 0-.05-.39 1.027 1.027 0 0 0 .05-.24v-12.32a4.524 4.524 0 0 0-1.1-8.94zm-21.22-3.99a2.386 2.386 0 1 1 2.39 2.33 2.367 2.367 0 0 1-2.39-2.33zm-7.59 16.31a1.141 1.141 0 0 0 1.24-.34l8.7-10.11 8.7 10.11a1.152 1.152 0 0 0 1.25.34l7.76-2.73v9.95c-4.89-2.12-16.12-2.2-17.71-2.2s-12.82.08-17.71 2.2v-9.96zm9.94 11.91c-8.7 0-14.25-1.01-16.56-1.87a4.748 4.748 0 0 1-1-.47c.73-.52 3.07-1.24 6.97-1.74a93.757 93.757 0 0 1 21.18 0c3.91.5 6.25 1.22 6.97 1.74a4 4 0 0 1-.99.47c-2.31.86-7.86 1.87-16.57 1.87zm-21.25-19.69a2.385 2.385 0 1 1 2.39 2.34 2.365 2.365 0 0 1-2.39-2.34zm40.12 2.34a2.336 2.336 0 1 1 2.39-2.34 2.365 2.365 0 0 1-2.39 2.34z" transform="translate(-1027.97 -3238)"/></symbol><symbol id="Forma_2" viewBox="0 0 45 32"><path id="Forma_1" data-name="Forma 1" class="cls-1" d="M1043.11 2953.42a.937.937 0 0 0-.93.94.89.89 0 1 1-.89-.91.94.94 0 0 0 0-1.88 2.785 2.785 0 1 0 2.75 2.79.937.937 0 0 0-.93-.94zm26.47 0a.937.937 0 0 0-.93.94.89.89 0 1 1-.89-.91.94.94 0 0 0 0-1.88 2.785 2.785 0 1 0 2.75 2.79.937.937 0 0 0-.93-.94zm7.29-12.02l-3.56-6.11c-1.22-2.06-2.37-3.27-4.68-3.47a.875.875 0 0 0-.24-.03h-7.12v-1.91a1.865 1.865 0 0 0-1.85-1.88h-25.56a1.867 1.867 0 0 0-1.86 1.88v23.54a1.874 1.874 0 0 0 1.86 1.88h1.93a5.562 5.562 0 0 0 10.99 0h15.49a5.562 5.562 0 0 0 10.99 0h2.81a.937.937 0 0 0 .93-.94v-12.49a.878.878 0 0 0-.13-.47zm-3.54 3.6a.937.937 0 0 1 .93-.94h.88v1.85h-1.81v-.91zm1.26-3.82h-8.53a.648.648 0 0 0-.19-.02.952.952 0 0 1-.95-.96v-3.77h6.9zm-40.73-11.3h25.56v23.54h-12.64a5.56 5.56 0 0 0-10.99 0h-1.93v-23.54zm7.43 28.24a3.765 3.765 0 1 1 3.72-3.76 3.747 3.747 0 0 1-3.72 3.76zm26.47 0a3.765 3.765 0 1 1 3.72-3.76 3.747 3.747 0 0 1-3.72 3.76zm5.5-4.7a5.56 5.56 0 0 0-10.99 0h-1v-19.75h6.63a3.366 3.366 0 0 1 2.58.88h-6.49a.937.937 0 0 0-.93.94v4.71a2.84 2.84 0 0 0 2.58 2.83.852.852 0 0 0 .23.03h6.38a2.8 2.8 0 0 0-.77 1.94v1.85a.93.93 0 0 0 .93.94h2.73v5.63h-1.88zm-36.58-19.75h19.91a.94.94 0 0 0 0-1.88h-19.91a.94.94 0 0 0 0 1.88z" transform="translate(-1032 -2928)"/></symbol><symbol id="Forma_3" viewBox="0 0 40 40"><path id="Forma_1" data-name="Forma 1" class="cls-1" d="M1043.78 3107.5c-1.89 0-3.46 1.63-3.46 4.56.02 2.91 1.57 4.37 3.35 4.37 1.83 0 3.42-1.52 3.42-4.59 0-2.77-1.3-4.34-3.31-4.34zm-.06 7.74c-1.19 0-1.9-1.41-1.88-3.26 0-1.84.67-3.29 1.88-3.29 1.34 0 1.85 1.47 1.85 3.24 0 1.92-.58 3.31-1.85 3.31zm-5.95-9.42c0-2.77-1.32-4.34-3.33-4.34-1.89 0-3.46 1.64-3.46 4.54.03 2.93 1.57 4.39 3.35 4.39 1.85 0 3.44-1.52 3.44-4.59zm-5.24.14c0-1.84.64-3.29 1.85-3.29 1.34 0 1.85 1.47 1.85 3.24 0 1.93-.58 3.31-1.85 3.31-1.21 0-1.9-1.41-1.85-3.26zm10.08-4.32l-8.41 14.75h1.23l8.42-14.75h-1.24zm12.97 10.33l3.42-2.97-3.42-2.97 2.21-3.98-4.2-1.6.73-4.5-4.5-.05-.82-4.49-4.24 1.52-2.29-3.93-3.47 2.9-3.47-2.9-2.29 3.93-4.24-1.52-.82 4.49-4.5.05.74 4.5-4.22 1.6 2.22 3.98-3.42 2.97 3.42 2.97-2.22 3.98 4.21 1.6-.73 4.5 4.5.05.82 4.49 4.24-1.52 2.29 3.93 3.47-2.9 3.47 2.9 2.29-3.93 4.24 1.52.82-4.49 4.5-.05-.74-4.5 4.21-1.6zm-2.66 3.78l-1.46.55.25 1.57.37 2.28-2.28.02-1.56.02-.28 1.56-.42 2.28-2.15-.77-1.47-.53-.79 1.36-1.16 2-1.76-1.48-1.21-1.01-1.21 1.01-1.76 1.48-1.16-2-.79-1.36-1.47.53-2.15.76-.42-2.27-.29-1.56-1.56-.02-2.28-.02.37-2.29.26-1.56-1.46-.56-2.14-.81 1.13-2.01.76-1.38-1.18-1.03-1.73-1.51 1.73-1.51 1.18-1.03-.76-1.38-1.12-2.02 2.13-.81 1.46-.56-.25-1.56-.38-2.28 2.29-.03 1.56-.01.28-1.56.42-2.28 2.15.77 1.47.52.79-1.36 1.16-1.99 1.76 1.47 1.21 1.01 1.2-1.01 1.77-1.47 1.16 2 .79 1.36 1.47-.53 2.15-.77.42 2.28.28 1.56 1.56.01 2.29.03-.37 2.28-.26 1.57 1.46.55 2.13.81-1.12 2.02-.76 1.38 1.18 1.03 1.73 1.51-1.73 1.51-1.18 1.03.76 1.38 1.12 2.01z" transform="translate(-1019 -3089)"/></symbol><symbol id="item__card" viewBox="0 0 25 24"><path id="Forma_1_copy" data-name="Forma 1 copy" class="cls-1" d="M898.851 2004.79h2.438l3.474 13.25a.862.862 0 0 0 .823.65h10.676a.852.852 0 0 0 .78-.54l3.885-9.41a.941.941 0 0 0-.071-.85.827.827 0 0 0-.709-.41h-11.8a.9.9 0 0 0 0 1.8h10.492l-3.148 7.62h-9.471l-3.474-13.24a.86.86 0 0 0-.822-.66h-3.077a.9.9 0 0 0 .004 1.79zm5.926 20.21a2.038 2.038 0 1 0-1.928-2.03 1.983 1.983 0 0 0 1.928 2.03zm12.053 0h.141a1.865 1.865 0 0 0 1.319-.7 2.117 2.117 0 0 0 .468-1.48 1.976 1.976 0 0 0-2.056-1.89 2.015 2.015 0 0 0-1.787 2.17 1.982 1.982 0 0 0 1.915 1.9z" transform="translate(-897 -2002)"/></symbol></svg>